<svg width="18" height="12" viewBox="0 0 18 12" fill="none" xmlns="http://www.w3.org/2000/svg">
<path opacity="0.5" fill-rule="evenodd" clip-rule="evenodd" d="M2.6896 0.00328454C2.67027 0.00780086 2.61124 0.0198136 2.5584 0.029983C2.41608 0.0573882 2.22718 0.21718 2.16362 0.363945C2.11328 0.480201 2.10863 0.927347 2.11739 4.84524L2.12709 9.19743L2.23629 9.31547C2.43 9.52491 2.51259 9.5493 3.11359 9.57471C3.7364 9.60107 3.90884 9.61668 4.4826 9.69859C6.02866 9.91928 7.3687 10.4713 8.34107 11.288L8.50807 11.4282L8.50722 7.00524C8.50677 4.5726 8.4926 2.53036 8.47576 2.46698C8.39215 2.15241 7.56565 1.35259 6.96116 1.00127C6.06431 0.480048 4.92013 0.143721 3.72673 0.0505677C3.27159 0.0150209 2.74262 -0.00909693 2.6896 0.00328454ZM14.7133 0.0179396C13.2367 0.0949013 12.0596 0.410245 11.0379 1.00259C10.4357 1.35173 9.60837 2.15241 9.52477 2.46698C9.50793 2.53036 9.49376 4.57168 9.4933 7.00318L9.49246 11.4241L9.67703 11.2726C10.6793 10.45 11.9759 9.91872 13.5179 9.69859C14.0917 9.61668 14.2641 9.60107 14.8869 9.57471C15.4879 9.5493 15.5705 9.52491 15.7642 9.31547L15.8734 9.19743L15.8839 4.8606C15.8912 1.83651 15.8829 0.489357 15.8566 0.409968C15.8121 0.27583 15.6739 0.123535 15.544 0.0654685C15.4035 0.00267014 15.2142 -0.00817519 14.7133 0.0179396ZM0.369248 2.01022C0.201971 2.07735 0.127017 2.14586 0.0541719 2.29819C0.00632341 2.39825 0.000100635 2.93766 0.000100635 6.97568C0.000100635 11.933 -0.0105167 11.6559 0.186362 11.8401C0.377439 12.019 0.583178 12.0408 1.13286 11.9403C3.2326 11.5564 5.43757 11.5044 7.11821 11.7991C7.34961 11.8397 7.5441 11.8684 7.55043 11.8629C7.57363 11.8426 7.21626 11.5884 6.92601 11.4186C6.1991 10.9935 5.25785 10.6919 4.17491 10.5372C4.0057 10.513 3.53108 10.4736 3.1202 10.4495C2.66074 10.4227 2.31581 10.3878 2.22409 10.359C1.73442 10.205 1.34594 9.85181 1.19417 9.42263C1.1272 9.23322 1.12512 9.11847 1.12512 5.58991V1.95243L0.817498 1.9531C0.594779 1.9536 0.471062 1.96936 0.369248 2.01022ZM16.8754 5.58991C16.8754 9.11847 16.8733 9.23322 16.8064 9.42263C16.6546 9.85171 16.2669 10.2043 15.7764 10.3592C15.6841 10.3883 15.346 10.4225 14.889 10.449C14.483 10.4725 14.04 10.5067 13.9046 10.525C12.8163 10.6722 11.8049 10.9914 11.0761 11.4176C10.7845 11.5882 10.4269 11.8426 10.4501 11.8629C10.4564 11.8684 10.6509 11.8397 10.8823 11.7991C12.563 11.5044 14.7679 11.5564 16.8677 11.9403C17.4173 12.0408 17.6231 12.019 17.8142 11.8401C18.0111 11.6558 18.0005 11.9339 17.9997 6.96898C17.9989 2.59918 17.996 2.39251 17.9343 2.27502C17.8084 2.03547 17.6131 1.95243 17.1754 1.95243H16.8754V5.58991Z" fill="white"/>
</svg>
