<svg width="18" height="15" viewBox="0 0 18 15" fill="none" xmlns="http://www.w3.org/2000/svg">
<path opacity="0.5" fill-rule="evenodd" clip-rule="evenodd" d="M2.43964 0.0235411C1.4729 0.190122 0.621924 0.844777 0.240537 1.71531C0.0539832 2.1411 -0.00155292 2.42397 3.28208e-05 2.93989C0.00133665 3.35722 0.0139521 3.46116 0.0963753 3.73338C0.346534 4.55999 0.864683 5.18352 1.61749 5.56392C2.06273 5.78887 2.29657 5.83672 2.95655 5.83789C3.49225 5.83885 3.58049 5.83028 3.79076 5.75693C4.82427 5.39641 5.38802 4.18126 4.95504 3.2473C4.56206 2.3996 3.39151 2.13406 2.85204 2.77029C2.72176 2.92389 2.58655 3.23741 2.58655 3.38589V3.47346H2.05797H1.52939V3.35071C1.52939 3.13461 1.6036 2.85897 1.74399 2.55373C2.00797 1.97979 2.56971 1.53365 3.20925 1.39005C3.73508 1.27195 4.41476 1.38994 4.90684 1.68472C6.09459 2.39633 6.49413 3.85532 5.86829 5.19583C5.79446 5.35391 5.67606 5.5594 5.60509 5.65253C5.53416 5.74562 5.47612 5.82964 5.47612 5.83928C5.47612 5.84888 7.06186 5.85674 8.99998 5.85674C10.9381 5.85674 12.5238 5.84888 12.5238 5.83928C12.5238 5.82964 12.4658 5.74562 12.3949 5.65253C12.3239 5.5594 12.2055 5.35391 12.1317 5.19583C11.5058 3.85532 11.9054 2.39633 13.0931 1.68472C13.5852 1.38994 14.2649 1.27195 14.7907 1.39005C15.4303 1.53365 15.992 1.97979 16.256 2.55373C16.3964 2.85897 16.4706 3.13461 16.4706 3.35071V3.47346H15.942H15.4134V3.38589C15.4134 3.23741 15.2782 2.92389 15.1479 2.77029C14.6085 2.13406 13.4379 2.3996 13.0449 3.2473C12.6119 4.18126 13.1757 5.39641 14.2092 5.75693C14.4195 5.83028 14.5077 5.83885 15.0434 5.83789C15.7034 5.83672 15.9372 5.78887 16.3825 5.56392C17.1353 5.18352 17.6534 4.55999 17.9036 3.73338C17.986 3.46116 17.9986 3.35722 17.9999 2.93989C18.0011 2.54896 17.987 2.40903 17.9242 2.18731C17.6246 1.13141 16.9245 0.418098 15.8608 0.0851151L15.6072 0.00575546L9.1057 0.000490902C5.52986 -0.00242595 2.53013 0.00796089 2.43964 0.0235411ZM3.43228 12.5619V13H4.11943H4.80658V14.1738C4.80658 9.73711 4.7983 9.91479 5.02538 9.47904C5.14864 9.24253 5.44063 8.93871 5.67811 8.79984C6.36357 8.39906 7.22431 8.51225 7.78347 9.07673C8.00431 9.29962 8.13949 9.53165 8.22857 9.84063C8.29221 10.0613 8.29521 10.2552 8.29521 14.1359V13H8.99998H9.70475V14.1359C9.70475 10.2552 9.70775 10.0613 9.77139 9.84063C10.091 8.73198 11.3366 8.22373 12.3219 8.79984C12.5593 8.93871 12.8513 9.24253 12.9746 9.47904C13.2017 9.91479 13.1934 9.73711 13.1934 14.1738V13H13.8805H14.5677V12.5619V6.92388H8.99998H3.43228V12.5619ZM6.26899 9.69258C6.09759 9.77482 5.99064 9.88762 5.91829 10.0624C5.87016 10.1787 5.86374 10.6645 5.86374 14.1971V13H6.55132H7.23893L7.22966 14.1333L7.22043 10.0667L7.1355 9.94161C6.94085 9.65487 6.56978 9.54823 6.26899 9.69258ZM11.1672 9.6771C11.0278 9.73911 10.8694 9.90181 10.8098 10.0441C10.7704 10.1384 10.7619 10.8691 10.7619 14.1793V13H11.4491H12.1362L12.1354 14.1893C12.1347 10.3661 12.1316 10.172 12.0696 10.0364C12.0339 9.95812 11.9666 9.85884 11.9201 9.81576C11.7304 9.63965 11.3916 9.57729 11.1672 9.6771Z" fill="white"/>
</svg>
